<?xml version="1.0" encoding="UTF-8"?>
<svg id="Layer_1" xmlns="http://www.w3.org/2000/svg" version="1.1" viewBox="0 0 256 81">
  <!-- Generator: Adobe Illustrator 29.1.0, SVG Export Plug-In . SVG Version: 2.1.0 Build 142)  -->
  <defs>
    <style>
      .st0 {
        fill: #71984a;
      }

      .st1 {
        fill: #82cfcd;
      }

      .st2 {
        fill: #212721;
      }
    </style>
  </defs>
  <g>
    <path class="st1" d="M59.83,35.87c0,15.26-12.36,27.62-27.62,27.62S4.59,51.13,4.59,35.87s12.37-27.62,27.62-27.62,27.62,12.37,27.62,27.62h0Z"/>
    <path class="st0" d="M42.39,30.07c0,5.22-4.23,9.45-9.45,9.45s-9.45-4.23-9.45-9.45,4.23-9.45,9.45-9.45,9.45,4.23,9.45,9.45h0Z"/>
    <path class="st0" d="M34.62,59.27c0,7.55-6.12,13.67-13.67,13.67s-13.67-6.12-13.67-13.67,6.12-13.67,13.67-13.67,13.67,6.12,13.67,13.67h0Z"/>
    <path class="st2" d="M24.18,30.07c.01,4.84,3.92,8.74,8.75,8.75h0c4.83-.01,8.74-3.92,8.75-8.75h0c0-4.83-3.92-8.74-8.75-8.75h0c-4.83.01-8.74,3.92-8.75,8.75h0ZM21.46,30.07c0-6.34,5.14-11.47,11.48-11.47h0c6.34,0,11.48,5.14,11.48,11.47h0c0,6.34-5.14,11.48-11.48,11.48h0c-6.34,0-11.48-5.14-11.48-11.48h0Z"/>
    <path class="st2" d="M8.25,59.27c.01,7.02,5.69,12.69,12.71,12.7h0c7.02-.01,12.69-5.69,12.7-12.7h0c-.01-7.02-5.69-12.69-12.7-12.71h0c-7.02.01-12.7,5.69-12.71,12.71h0ZM5.26,59.27c0-8.67,7.03-15.7,15.7-15.7h0c8.67,0,15.69,7.03,15.69,15.7h0c0,8.67-7.03,15.69-15.69,15.69h0c-8.67,0-15.69-7.03-15.7-15.69h0Z"/>
    <path class="st2" d="M5.85,35.87c.03,14.55,11.79,26.32,26.35,26.35h0c14.56-.02,26.32-11.8,26.35-26.35h0c-.02-14.55-11.79-26.33-26.35-26.35h0c-14.55.02-26.32,11.8-26.35,26.35h0ZM2.56,35.87C2.56,19.5,15.83,6.22,32.2,6.22h0c16.38,0,29.65,13.27,29.65,29.65h0c0,16.37-13.27,29.65-29.65,29.65h0c-16.38,0-29.65-13.27-29.65-29.65h0Z"/>
    <polygon class="st2" points="49.01 25.25 42.69 27.39 41.67 24.38 47.99 22.24 49.01 25.25 49.01 25.25"/>
    <polygon class="st2" points="30.37 40.2 27.47 46.22 24.61 44.84 27.5 38.82 30.37 40.2 30.37 40.2"/>
  </g>
  <g>
    <path class="st0" d="M248.6,23.1c0,8.96-7.26,16.22-16.22,16.22s-16.21-7.26-16.21-16.22,7.26-16.22,16.21-16.22,16.22,7.26,16.22,16.22h0Z"/>
    <path class="st2" d="M218.02,23.1c.01,7.93,6.43,14.35,14.36,14.36h0c7.93-.01,14.35-6.43,14.36-14.36h0c-.01-7.93-6.43-14.35-14.36-14.36h0c-7.94.02-14.35,6.43-14.36,14.36h0ZM213.76,23.1c0-10.28,8.33-18.61,18.62-18.62h0c10.28,0,18.62,8.33,18.62,18.62h0c0,10.28-8.34,18.61-18.62,18.62h0c-10.28,0-18.61-8.33-18.62-18.62h0Z"/>
    <path class="st2" d="M84.64,25.49h11.99v8.03c-2.92,2.08-6.06,3.22-9.39,3.22-9.81,0-13.29-7.11-13.29-13.21-.02-3.87,1.3-7.34,3.73-9.79,2.36-2.38,5.67-3.64,9.56-3.64,3.61,0,7.24,1.45,9.7,3.88l.67.65,2.64-2.89-.62-.61c-3.32-3.28-7.72-5.08-12.39-5.08-5.12,0-9.51,1.69-12.69,4.88-3.16,3.17-4.82,7.55-4.79,12.65,0,8.61,5.4,17.3,17.48,17.3,4.85,0,9.14-1.83,12.76-5.45l.23-.26v-13.27h-15.59v3.6h0Z"/>
    <path class="st2" d="M111.63,27.89l7.26-16.44,7.26,16.44h-14.51ZM116.93,6.3l-15.6,34.78h4.27l3.71-8.39h19.16l3.76,8.39h4.27l-15.6-34.78h-3.97Z"/>
    <polygon class="st2" points="146.04 33.82 134.9 6.3 130.35 6.3 144.13 39.88 147.95 39.88 161.72 6.3 157.17 6.3 146.04 33.82 146.04 33.82"/>
    <polygon class="st2" points="168.58 25.49 187.77 25.49 187.77 21.89 168.58 21.89 168.58 9.9 187.77 9.9 187.77 6.3 164.99 6.3 164.99 39.88 188.97 39.88 188.97 36.28 168.58 36.28 168.58 25.49 168.58 25.49"/>
    <polygon class="st2" points="197.37 36.28 197.37 6.3 192.57 6.3 192.57 39.88 215.36 39.88 215.36 36.28 197.19 36.28 197.37 36.28"/>
    <g>
      <path d="M93.01,61.81c0,7.41-5.19,12.53-12.75,12.53h-8.34v-25.06h8.34c7.55,0,12.75,5.12,12.75,12.53ZM91.44,61.81c0-6.48-4.58-10.99-11.17-10.99h-6.77v21.98h6.77c6.59,0,11.17-4.48,11.17-10.99Z"/>
      <path d="M97.31,61.81c0-7.63,5.23-12.96,12.64-12.96s12.64,5.33,12.64,12.96-5.23,12.96-12.67,12.96-12.6-5.33-12.6-12.96ZM121.01,61.81c0-6.73-4.58-11.46-11.06-11.46s-11.06,4.73-11.06,11.46,4.58,11.46,11.06,11.46,11.06-4.73,11.06-11.46Z"/>
      <path d="M128.64,49.28h1.68l14.64,20.12c1.15,1.58,1.5,2.08,1.79,2.54l.07-.04c-.04-.54-.04-1.15-.04-2.04v-20.59h1.58v25.06h-1.65l-14.68-20.12c-1.15-1.58-1.5-2.08-1.79-2.54l-.07.04c.04.54.04,1.15.04,2.04v20.59h-1.58v-25.06Z"/>
      <path d="M154.42,61.81c0-7.63,5.23-12.96,12.64-12.96s12.64,5.33,12.64,12.96-5.23,12.96-12.67,12.96-12.6-5.33-12.6-12.96ZM178.13,61.81c0-6.73-4.58-11.46-11.06-11.46s-11.06,4.73-11.06,11.46,4.58,11.46,11.06,11.46,11.06-4.73,11.06-11.46Z"/>
      <path d="M193.56,64.71h-6.23v9.63h-1.58v-25.06h9.85c4.87,0,8.09,3.12,8.09,7.7s-3.19,7.7-8.06,7.73l8.88,9.63h-2.08l-8.88-9.63ZM195.56,50.78h-8.24v12.42h8.24c4.05,0,6.55-2.43,6.55-6.19s-2.51-6.23-6.55-6.23Z"/>
      <path d="M219.66,49.28h1.58v25.06h-1.58v-25.06Z"/>
      <path d="M250.13,61.81c0,7.41-5.19,12.53-12.75,12.53h-8.34v-25.06h8.34c7.55,0,12.75,5.12,12.75,12.53ZM248.56,61.81c0-6.48-4.58-10.99-11.17-10.99h-6.77v21.98h6.77c6.59,0,11.17-4.48,11.17-10.99Z"/>
    </g>
  </g>
</svg>